<?xml version="1.0" encoding="UTF-8" standalone="no"?>
<!-- Created with Inkscape (http://www.inkscape.org/) -->

<svg
   xmlns:dc="http://purl.org/dc/elements/1.1/"
   xmlns:cc="http://creativecommons.org/ns#"
   xmlns:rdf="http://www.w3.org/1999/02/22-rdf-syntax-ns#"
   xmlns:svg="http://www.w3.org/2000/svg"
   xmlns="http://www.w3.org/2000/svg"
   xmlns:sodipodi="http://sodipodi.sourceforge.net/DTD/sodipodi-0.dtd"
   xmlns:inkscape="http://www.inkscape.org/namespaces/inkscape"
   width="141.26753mm"
   height="16.506641mm"
   viewBox="0 0 141.26753 16.506641"
   version="1.1"
   id="svg1363"
   inkscape:version="0.92.4 (5da689c313, 2019-01-14)"
   sodipodi:docname="logo-white.svg">
  <defs
     id="defs1357" />
  <sodipodi:namedview
     id="base"
     pagecolor="#ffffff"
     bordercolor="#666666"
     borderopacity="1.0"
     inkscape:pageopacity="0.0"
     inkscape:pageshadow="2"
     inkscape:zoom="0.35"
     inkscape:cx="321.24798"
     inkscape:cy="76.907937"
     inkscape:document-units="mm"
     inkscape:current-layer="layer1"
     showgrid="false"
     inkscape:window-width="1366"
     inkscape:window-height="715"
     inkscape:window-x="-8"
     inkscape:window-y="-8"
     inkscape:window-maximized="1" />
  <metadata
     id="metadata1360">
    <rdf:RDF>
      <cc:Work
         rdf:about="">
        <dc:format>image/svg+xml</dc:format>
        <dc:type
           rdf:resource="http://purl.org/dc/dcmitype/StillImage" />
        <dc:title></dc:title>
      </cc:Work>
    </rdf:RDF>
  </metadata>
  <g
     inkscape:label="Camada 1"
     inkscape:groupmode="layer"
     id="layer1"
     transform="translate(170.41948,-238.09787)">
    <g
       id="g983"
       transform="matrix(0.07886602,-0.02113209,0.02113209,0.07886602,-33.605539,211.41359)"
       style="fill:#ffffff;fill-opacity:1">
      <path
         inkscape:connector-curvature="0"
         id="path977"
         d="m -354.54158,441.4847 c -4.42249,-2.37469 -9.52551,-7.15312 -55.81756,-52.26726 -9.24732,-9.01203 -11.55451,-12.66981 -11.55451,-18.31834 0,-7.1039 1.1362,-9.06742 10.91731,-18.86652 15.27281,-15.3009 72.42691,-70.11298 75.48587,-72.39266 3.62286,-2.69993 12.3889,-6.76295 18.2962,-8.48021 3.79537,-1.10332 8.69442,-1.3713 30.01385,-1.64176 17.4583,-0.22149 26.79563,-0.0497 29.66361,0.54567 6.22883,1.2931 10.88009,4.76021 13.63293,10.16216 l 2.28486,4.48364 v 26.13243 c 0,25.29967 -0.0565,26.31221 -1.77142,31.77363 -3.8805,12.35775 -5.23204,14.28606 -21.24829,30.31605 -12.48027,12.49097 -29.65032,29.16733 -63.91998,62.08205 -7.08199,6.80202 -11.09096,8.88796 -17.12671,8.91137 -3.40696,0.0132 -5.21454,-0.48486 -8.85616,-2.44025 z m 76.79446,-110.83839 c 3.41334,-1.759 7.09197,-5.51727 8.97475,-9.16904 1.98281,-3.84583 1.86386,-12.26878 -0.22955,-16.25298 -4.57155,-8.7007 -14.93285,-12.95242 -24.54585,-10.0723 -4.12581,1.23612 -9.5613,6.2649 -11.67286,10.79945 -4.87476,10.46846 1.39639,23.15551 12.95281,26.20447 3.53859,0.93361 11.35687,0.1208 14.5207,-1.5096 z"
         style="opacity:1;fill:#ffffff;fill-opacity:1;stroke:none;stroke-width:2.85714293;stroke-linecap:round;stroke-linejoin:round;stroke-miterlimit:4;stroke-dasharray:none;stroke-dashoffset:17.08346367;stroke-opacity:1" />
      <path
         inkscape:connector-curvature="0"
         id="path979"
         d="m -393.02986,442.06453 c -2.89885,-1.34957 -7.37338,-5.14444 -16.25296,-13.7843 -22.66455,-22.05264 -31.10865,-30.22903 -39.72702,-38.46754 -9.43454,-9.01869 -11.43577,-12.08741 -12.0096,-18.4156 -0.58444,-6.44517 1.55559,-10.64776 9.11979,-17.90953 17.04218,-16.3608 50.56309,-48.78665 60.70452,-58.72144 12.07413,-11.82807 17.35584,-16.20106 22.94617,-18.99818 5.1035,-2.55354 12.11803,-4.79605 16.71074,-5.34235 l 4.08586,-0.486 -10.20535,10.05222 c -14.67845,14.4582 -62.51271,60.75665 -82.30357,79.66105 -7.02318,6.7086 -8.6243,9.36701 -7.53086,12.50374 0.38857,1.11457 3.49618,4.72071 6.90586,8.01363 3.40966,3.29291 16.57485,16.00818 29.25596,28.25613 12.68108,12.24796 25.71578,24.82418 28.96595,27.94716 l 5.90944,5.67815 -2.12966,0.91084 c -3.65712,1.56413 -10.00416,1.16957 -14.44527,-0.89798 z"
         style="opacity:1;fill:#ffffff;fill-opacity:1;stroke:none;stroke-width:2.85714293;stroke-linecap:round;stroke-linejoin:round;stroke-miterlimit:4;stroke-dasharray:none;stroke-dashoffset:17.08346367;stroke-opacity:1" />
    </g>
    <path
       d="m -161.86138,238.37846 q 1.33282,0 2.29152,0.39751 0.95869,0.37412 1.56664,1.02884 0.63134,0.63134 0.91193,1.4965 0.30398,0.86516 0.30398,1.80048 0,0.74825 -0.18706,1.49649 -0.18707,0.72487 -0.58457,1.37959 -0.39751,0.63134 -1.02885,1.12237 -0.63133,0.49104 -1.54326,0.74825 l 3.6711,6.31336 h -3.06315 l -3.60095,-6.10291 h -4.11537 q -0.39751,0 -0.39751,0.39751 v 5.7054 h -2.75917 v -6.24321 q 0,-1.33282 0.58457,-1.91739 0.58457,-0.58457 1.89401,-0.58457 h 6.14967 q 0.58457,0 1.00546,-0.18706 0.42089,-0.18706 0.6781,-0.49104 0.25721,-0.30397 0.37413,-0.70148 0.1403,-0.39751 0.1403,-0.8184 0,-0.84178 -0.53781,-1.44973 -0.51442,-0.63134 -1.66018,-0.63134 h -8.65163 v -2.75917 z"
       style="font-style:normal;font-variant:normal;font-weight:normal;font-stretch:normal;font-size:23.38279724px;line-height:1.25;font-family:Nasalization;-inkscape-font-specification:Nasalization;letter-spacing:0px;word-spacing:0px;fill:#ffffff;fill-opacity:1;stroke:none;stroke-width:0.58456993"
       id="path1027"
       inkscape:connector-curvature="0" />
    <path
       d="m -141.05434,238.37846 v 2.75917 h -7.90339 q -1.26267,0 -1.82386,0.53781 -0.56118,0.5378 -0.56118,1.44973 0,1.87062 2.40842,1.87062 h 7.76309 v 2.50196 h -7.83323 q -2.40843,0 -2.40843,1.91739 0,0.93531 0.58457,1.47312 0.58457,0.51442 1.80047,0.51442 h 7.99692 v 2.75917 h -7.99692 q -1.40296,0 -2.40843,-0.32736 -0.98207,-0.32736 -1.63679,-0.88855 -0.63134,-0.58457 -0.93531,-1.37958 -0.2806,-0.79502 -0.2806,-1.70695 0,-1.3562 0.58457,-2.24474 0.58457,-0.91193 1.68357,-1.37959 -2.22137,-0.91193 -2.22137,-3.55418 0,-0.93532 0.30398,-1.73033 0.30397,-0.79502 0.93531,-1.3562 0.65472,-0.58457 1.63679,-0.88855 1.00546,-0.32736 2.40843,-0.32736 z"
       style="font-style:normal;font-variant:normal;font-weight:normal;font-stretch:normal;font-size:23.38279724px;line-height:1.25;font-family:Nasalization;-inkscape-font-specification:Nasalization;letter-spacing:0px;word-spacing:0px;fill:#ffffff;fill-opacity:1;stroke:none;stroke-width:0.58456993"
       id="path1029"
       inkscape:connector-curvature="0" />
    <path
       d="m -126.6889,238.37846 v 2.75917 h -4.60641 v 13.02422 h -2.78256 v -13.02422 h -4.60641 v -2.75917 z"
       style="font-style:normal;font-variant:normal;font-weight:normal;font-stretch:normal;font-size:23.38279724px;line-height:1.25;font-family:Nasalization;-inkscape-font-specification:Nasalization;letter-spacing:0px;word-spacing:0px;fill:#ffffff;fill-opacity:1;stroke:none;stroke-width:0.58456993"
       id="path1031"
       inkscape:connector-curvature="0" />
    <path
       d="m -124.18694,254.16185 h -3.03977 l 5.54173,-14.02968 q 0.44427,-1.12237 1.23928,-1.56665 0.8184,-0.46765 2.08107,-0.46765 1.23929,0 2.03431,0.46765 0.81839,0.44428 1.23928,1.56665 l 5.33128,14.02968 h -3.06314 l -4.79348,-12.69686 q -0.21044,-0.5378 -0.77163,-0.5378 -0.56119,0 -0.79502,0.5378 z"
       style="font-style:normal;font-variant:normal;font-weight:normal;font-stretch:normal;font-size:23.38279724px;line-height:1.25;font-family:Nasalization;-inkscape-font-specification:Nasalization;letter-spacing:0px;word-spacing:0px;fill:#ffffff;fill-opacity:1;stroke:none;stroke-width:0.58456993"
       id="path1033"
       inkscape:connector-curvature="0" />
    <path
       d="m -104.68094,238.37846 v 15.78339 h -2.75917 v -15.78339 z"
       style="font-style:normal;font-variant:normal;font-weight:normal;font-stretch:normal;font-size:23.38279724px;line-height:1.25;font-family:Nasalization;-inkscape-font-specification:Nasalization;letter-spacing:0px;word-spacing:0px;fill:#ffffff;fill-opacity:1;stroke:none;stroke-width:0.58456993"
       id="path1035"
       inkscape:connector-curvature="0" />
    <path
       d="m -98.268207,238.37846 v 10.31181 q 0,0.56119 0.140298,1.07561 0.163682,0.49104 0.5378,0.86517 0.374131,0.35074 0.98208,0.56118 0.631341,0.21045 1.566651,0.21045 h 6.126289 v 2.75917 h -6.289968 q -1.566651,0 -2.689021,-0.39751 -1.09899,-0.42089 -1.800479,-1.14576 -0.701483,-0.72486 -1.028843,-1.70694 -0.30398,-1.00546 -0.30398,-2.19798 v -10.3352 z"
       style="font-style:normal;font-variant:normal;font-weight:normal;font-stretch:normal;font-size:23.38279724px;line-height:1.25;font-family:Nasalization;-inkscape-font-specification:Nasalization;letter-spacing:0px;word-spacing:0px;fill:#ffffff;fill-opacity:1;stroke:none;stroke-width:0.58456993"
       id="path1037"
       inkscape:connector-curvature="0" />
    <path
       d="m -83.628378,254.16185 h -2.735791 v -12.53318 q 0,-1.59003 0.93531,-2.54873 0.93531,-0.98207 2.8527,-0.98207 1.68356,0 2.66564,0.8184 0.982081,0.79501 1.309442,2.29151 l 2.22137,9.65709 q 0.210439,0.88855 1.052219,0.88855 0.818401,0 1.052229,-0.88855 l 2.22136,-9.65709 q 0.327361,-1.4965 1.239292,-2.29151 0.935308,-0.8184 2.642258,-0.8184 1.91739,0 2.8527,0.98207 0.93531,0.9587 0.93531,2.54873 v 12.53318 h -2.73579 v -12.39288 q 0,-0.46766 -0.30397,-0.72487 -0.2806,-0.28059 -0.8184,-0.28059 -0.49104,0 -0.74825,0.23382 -0.25721,0.21045 -0.35074,0.60796 l -2.26813,9.65709 q -0.374129,1.56665 -1.23929,2.38505 -0.865169,0.79501 -2.501958,0.79501 -1.660181,0 -2.572112,-0.8184 -0.888548,-0.81839 -1.23929,-2.36166 l -2.244749,-9.65709 q -0.0935,-0.39751 -0.374121,-0.60796 -0.257209,-0.23382 -0.724868,-0.23382 -0.5378,0 -0.84178,0.28059 -0.28059,0.25721 -0.28059,0.72487 z"
       style="font-style:normal;font-variant:normal;font-weight:normal;font-stretch:normal;font-size:23.38279724px;line-height:1.25;font-family:Nasalization;-inkscape-font-specification:Nasalization;letter-spacing:0px;word-spacing:0px;fill:#ffffff;fill-opacity:1;stroke:none;stroke-width:0.58456993"
       id="path1039"
       inkscape:connector-curvature="0" />
    <path
       d="m -34.226019,238.37846 q 1.33282,0 2.29151,0.39751 0.9587,0.37412 1.56665,1.02884 0.63134,0.63134 0.91193,1.4965 0.30398,0.86516 0.30398,1.80048 0,0.88854 -0.2806,1.77709 -0.25721,0.88854 -0.86516,1.59003 -0.60795,0.70148 -1.59003,1.14576 -0.9587,0.44427 -2.33828,0.44427 h -4.91039 q -0.39751,0 -0.39751,0.39751 v 5.7054 h -2.75917 v -6.24321 q 0,-1.33282 0.58457,-1.91739 0.58457,-0.58457 1.89401,-0.58457 h 5.68202 q 0.58457,0 1.00546,-0.18706 0.42089,-0.18706 0.6781,-0.49104 0.25721,-0.30397 0.37413,-0.6781 0.14029,-0.39751 0.14029,-0.8184 0,-0.86516 -0.5378,-1.47311 -0.51442,-0.63134 -1.6368,-0.63134 h -8.20736 v -2.75917 z"
       style="font-style:normal;font-variant:normal;font-weight:normal;font-stretch:normal;font-size:23.38279724px;line-height:1.25;font-family:Nasalization;-inkscape-font-specification:Nasalization;letter-spacing:0px;word-spacing:0px;fill:#ffffff;fill-opacity:1;stroke:none;stroke-width:0.58456993"
       id="path1041"
       inkscape:connector-curvature="0" />
  </g>
</svg>
